<?xml version="1.0" encoding="UTF-8"?>
<svg width="137px" height="21px" viewBox="0 0 137 21" version="1.1" xmlns="http://www.w3.org/2000/svg" xmlns:xlink="http://www.w3.org/1999/xlink">
    <!-- Generator: Sketch 60 (88103) - https://sketch.com -->
    <title> Homepage - 5 stars</title>
    <desc>Created with Sketch.</desc>
    <g id="-Homepage---5-stars" stroke="none" stroke-width="1" fill="none" fill-rule="evenodd">
        <g id="5-stars" fill="#4F4F4F">
            <polygon id="Star" points="10.5 15.75 4.32825485 18.9946784 5.50695329 12.1223392 0.513906579 7.25532156 7.41412743 6.25266078 10.5 0 13.5858726 6.25266078 20.4860934 7.25532156 15.4930467 12.1223392 16.6717451 18.9946784"></polygon>
            <polygon id="Star-Copy" points="39.5 15.75 33.3282549 18.9946784 34.5069533 12.1223392 29.5139066 7.25532156 36.4141274 6.25266078 39.5 0 42.5858726 6.25266078 49.4860934 7.25532156 44.4930467 12.1223392 45.6717451 18.9946784"></polygon>
            <polygon id="Star-Copy-2" points="68.5 15.75 62.3282549 18.9946784 63.5069533 12.1223392 58.5139066 7.25532156 65.4141274 6.25266078 68.5 0 71.5858726 6.25266078 78.4860934 7.25532156 73.4930467 12.1223392 74.6717451 18.9946784"></polygon>
            <polygon id="Star-Copy-3" points="97.5 15.75 91.3282549 18.9946784 92.5069533 12.1223392 87.5139066 7.25532156 94.4141274 6.25266078 97.5 0 100.585873 6.25266078 107.486093 7.25532156 102.493047 12.1223392 103.671745 18.9946784"></polygon>
            <polygon id="Star-Copy-4" points="126.5 15.75 120.328255 18.9946784 121.506953 12.1223392 116.513907 7.25532156 123.414127 6.25266078 126.5 0 129.585873 6.25266078 136.486093 7.25532156 131.493047 12.1223392 132.671745 18.9946784"></polygon>
        </g>
    </g>
</svg>