<?xml version="1.0" encoding="UTF-8"?>
<svg width="73px" height="58px" viewBox="0 0 73 58" version="1.1" xmlns="http://www.w3.org/2000/svg" xmlns:xlink="http://www.w3.org/1999/xlink">
    <!-- Generator: Sketch 60 (88103) - https://sketch.com -->
    <title>Homepage - search icon</title>
    <desc>Created with Sketch.</desc>
    <defs>
        <polygon id="path-1" points="15.8596491 8 57.4912281 8 57.4912281 50 15.8596491 50"></polygon>
    </defs>
    <g id="Homepage---search-icon" stroke="none" stroke-width="1" fill="none" fill-rule="evenodd">
        <path d="M64.3596491,0 C68.7779271,-8.11624501e-16 72.3596491,3.581722 72.3596491,8 L72.3596491,50 C72.3596491,54.418278 68.7779271,58 64.3596491,58 L8,58 C3.581722,58 -2.51330083e-13,54.418278 -2.55795385e-13,50 L-2.55795385e-13,8 C-2.58112825e-13,3.581722 3.581722,8.11624501e-16 8,0 L64.3596491,0 Z M20.1036696,12.9713388 C14.6526707,18.7770935 14.4192351,28.1276206 19.596503,34.1839734 C24.9113312,40.3999249 33.7499253,41.3827172 40.177741,37.1295504 C40.1985835,37.1491502 40.2124784,37.17575 40.2319314,37.1953499 L52.1371466,49.1904563 C53.2084492,50.2698479 54.9467106,50.2698479 56.0194028,49.1904563 L56.6877511,48.5156616 C57.7590537,47.43627 57.7590537,45.6848837 56.6877511,44.6040921 L44.7853149,32.6103856 C44.763083,32.5879858 44.738072,32.5753859 44.7172296,32.5557861 C48.7273195,26.4014341 48.0492447,18.0560991 42.6802261,12.6451414 C36.4274871,6.34519049 26.2202379,6.45298965 20.1036696,12.9713388 Z M40.7085291,18.1442985 C42.8775348,21.5882716 42.8775348,26.1326362 40.7071396,29.5766093 C36.4010866,36.408556 26.6954461,36.408556 22.3893931,29.5766093 C20.2189979,26.1326362 20.2189979,21.5882716 22.3880036,18.1442985 C26.6954461,11.3123517 36.4024761,11.3123517 40.7085291,18.1442985 Z" id="Combined-Shape" fill="#FFFFFF"></path>
        <mask id="mask-2" fill="white">
            <use xlink:href="#path-1"></use>
        </mask>
        <g id="Clip-2"></g>
    </g>
</svg>